<svg width="400" height="400" xmlns="http://www.w3.org/2000/svg">
 <!-- Created with Method Draw - http://github.com/duopixel/Method-Draw/ -->

 <g>
  <title>background</title>
  <rect fill="none" id="canvas_background" height="402" width="402" y="-1" x="-1"/>
  <g display="none" overflow="visible" y="0" x="0" height="100%" width="100%" id="canvasGrid">
   <rect fill="url(#gridpattern)" stroke-width="0" y="0" x="0" height="100%" width="100%"/>
  </g>
 </g>
 <g>
  <title>Layer 1</title>
  <g id="svg_23">
   <g transform="matrix(2.071373777518989,0,0,2.0429349142077147,-634.0708678853653,-534.8743062682702) " id="svg_5">
    <path fill="#ffffff" id="svg_6" d="m497.28182,296.91614l-32.344,-32.348c-1.407,-1.407 -3.315,-2.197 -5.304,-2.197c-1.989,0 -3.897,0.79 -5.303,2.196l-32.35,32.35c-0.004,0.004 -0.008,0.01 -0.013,0.014l-62.048,62.048c-1.351,1.352 -2.135,3.166 -2.193,5.076l-1.015,33.361c-0.063,2.067 0.731,4.068 2.193,5.531c1.409,1.408 3.317,2.196 5.303,2.196c0.076,0 0.153,-0.001 0.229,-0.004l33.36,-1.018c1.909,-0.058 3.724,-0.842 5.075,-2.192l94.41,-94.408c2.929,-2.927 2.929,-7.676 0,-10.605zm-37.651,27.042l-21.74,-21.737l21.743,-21.743l21.738,21.741l-21.741,21.739zm-65.263,65.263l-22.421,0.685l0.682,-22.422l54.655,-54.656l21.741,21.738l-54.657,54.655z"/>
    <path fill="#ffffff" id="svg_7" d="m437.23282,379.46314c-4.142,0 -7.5,3.357 -7.5,7.5l0,54.844l-109.688,0l0,-109.688l54.844,0c4.142,0 7.5,-3.357 7.5,-7.5s-3.358,-7.5 -7.5,-7.5l-62.344,0c-4.142,0 -7.5,3.357 -7.5,7.5l0,124.687c0,4.143 3.358,7.5 7.5,7.5l124.687,0c4.142,0 7.5,-3.357 7.5,-7.5l0,-62.344c0.001,-4.142 -3.357,-7.499 -7.499,-7.499z"/>
   </g>
   <g transform="matrix(1.0580510209997698,0,0,1.0580510209997698,0,0) " id="svg_8"/>
   <g transform="matrix(1.0580510209997698,0,0,1.0580510209997698,0,0) " id="svg_9"/>
   <g transform="matrix(1.0580510209997698,0,0,1.0580510209997698,0,0) " id="svg_10"/>
   <g transform="matrix(1.0580510209997698,0,0,1.0580510209997698,0,0) " id="svg_11"/>
   <g transform="matrix(1.0580510209997698,0,0,1.0580510209997698,0,0) " id="svg_12"/>
   <g transform="matrix(1.0580510209997698,0,0,1.0580510209997698,0,0) " id="svg_13"/>
   <g transform="matrix(1.0580510209997698,0,0,1.0580510209997698,0,0) " id="svg_14"/>
   <g transform="matrix(1.0580510209997698,0,0,1.0580510209997698,0,0) " id="svg_15"/>
   <g transform="matrix(1.0580510209997698,0,0,1.0580510209997698,0,0) " id="svg_16"/>
   <g transform="matrix(1.0580510209997698,0,0,1.0580510209997698,0,0) " id="svg_17"/>
   <g transform="matrix(1.0580510209997698,0,0,1.0580510209997698,0,0) " id="svg_18"/>
   <g transform="matrix(1.0580510209997698,0,0,1.0580510209997698,0,0) " id="svg_19"/>
   <g transform="matrix(1.0580510209997698,0,0,1.0580510209997698,0,0) " id="svg_20"/>
   <g transform="matrix(1.0580510209997698,0,0,1.0580510209997698,0,0) " id="svg_21"/>
   <g transform="matrix(1.0580510209997698,0,0,1.0580510209997698,0,0) " id="svg_22"/>
  </g>
 </g>
</svg>