<?xml version="1.0" encoding="utf-8"?>
<svg version="1.1" id="Layer_1" xmlns="http://www.w3.org/2000/svg" xmlns:xlink="http://www.w3.org/1999/xlink" x="0px"
     y="0px" viewBox="0 0 122.88 69.06" style="enable-background:new 0 0 122.88 69.06" xml:space="preserve"><style type="text/css">.st0{fill-rule:evenodd;clip-rule:evenodd;}</style>
    <g><path class="st0" d="M60.99,0l61.89,23.41l-4.84,1.93v16.78c1.31,0.83,2.2,2.36,2.2,4.11c0,2.64-2.01,4.78-4.48,4.78 c-2.48,0-4.49-2.14-4.49-4.78c0-1.75,0.88-3.27,2.2-4.11V27.16l-7.9,3.14v11.81c1.31,0.83,2.2,2.36,2.2,4.11 c0,2.64-2.01,4.78-4.49,4.78c-2.48,0-4.48-2.14-4.48-4.78c0-1.75,0.88-3.27,2.2-4.11v-9.99L60.99,48.04L0,24.14L60.99,0L60.99,0z M25.17,38.86l36.5,14l35.59-14v30.19h-72.1V38.86L25.17,38.86z"/></g></svg>
