<?xml version="1.0" encoding="UTF-8" standalone="no"?>
<!DOCTYPE svg PUBLIC "-//W3C//DTD SVG 1.1//EN" "http://www.w3.org/Graphics/SVG/1.1/DTD/svg11.dtd">
<svg version="1.1" xmlns="http://www.w3.org/2000/svg" xmlns:xlink="http://www.w3.org/1999/xlink" preserveAspectRatio="xMidYMid meet" viewBox="0 0 640 640" width="100%" height="100%"><defs><path d="M32.63 295.9C18.21 295.93 6.49 286.39 6.46 274.62C6.44 262.84 18.13 253.26 32.55 253.23C90.03 253.12 549.89 252.22 607.37 252.11C621.79 252.08 633.51 261.62 633.54 273.39C633.56 285.17 621.87 294.75 607.45 294.78C492.49 295 90.11 295.79 32.63 295.9Z" id="b4FT67oW8"></path><path d="M32.53 383.31C17.95 383.34 6.1 373.8 6.08 362.03C6.05 350.25 17.87 340.67 32.45 340.64C90.56 340.53 555.44 339.62 613.54 339.51C628.13 339.48 639.98 349.01 640 360.79C640.02 372.56 628.21 382.14 613.63 382.17C497.41 382.4 90.64 383.19 32.53 383.31Z" id="i1PlNQU0M"></path><path d="M26.71 459.47C11.99 459.49 0.02 449.96 0 438.18C-0.02 426.41 11.9 416.83 26.63 416.8C85.29 416.68 554.63 415.77 613.29 415.65C628.01 415.62 639.98 425.16 640 436.93C640.02 448.71 628.1 458.29 613.37 458.32C496.04 458.55 85.37 459.35 26.71 459.47Z" id="b2PeWty8kj"></path></defs><g><g><g><use xlink:href="#b4FT67oW8" opacity="1" fill="#eaeaea" fill-opacity="1"></use><g><use xlink:href="#b4FT67oW8" opacity="1" fill-opacity="0" stroke="#000000" stroke-width="1" stroke-opacity="0"></use></g></g><g><use xlink:href="#i1PlNQU0M" opacity="1" fill="#eaeaea" fill-opacity="1"></use><g><use xlink:href="#i1PlNQU0M" opacity="1" fill-opacity="0" stroke="#000000" stroke-width="1" stroke-opacity="0"></use></g></g><g><use xlink:href="#b2PeWty8kj" opacity="1" fill="#eaeaea" fill-opacity="1"></use><g><use xlink:href="#b2PeWty8kj" opacity="1" fill-opacity="0" stroke="#000000" stroke-width="1" stroke-opacity="0"></use></g></g></g></g></svg>
