<svg width="512" height="512" xmlns="http://www.w3.org/2000/svg">

 <g>
  <title>background</title>
  <rect fill="none" id="canvas_background" height="602" width="802" y="-1" x="-1"/>
 </g>
 <g>
  <title>Layer 1</title>
  <path fill="#ffffff" id="svg_1" d="m467,61l-422,0c-24.813,0 -45,20.187 -45,45l0,300c0,24.813 20.187,45 45,45l422,0c24.813,0 45,-20.187 45,-45l0,-300c0,-24.813 -20.187,-45 -45,-45zm-65.19,30l-145.81,108.785l-145.81,-108.785l291.62,0zm-356.81,0l15.021,0l187.009,139.523c2.661,1.985 5.815,2.977 8.97,2.977s6.309,-0.992 8.97,-2.977l187.009,-139.523l15.021,0c8.265,0 14.989,6.719 14.999,14.982l-225.999,168.796l-225.999,-168.796c0.01,-8.263 6.734,-14.982 14.999,-14.982zm202.024,214.518c2.662,1.988 5.819,2.982 8.976,2.982s6.314,-0.994 8.976,-2.982l157.024,-117.28l0,232.762l-332,0l0,-232.762l157.024,117.28zm-217.024,100.482l0,-262.575l30,22.407l0,255.168l-15,0c-8.271,0 -15,-6.729 -15,-15zm437,15l-15,0l0,-255.168l30,-22.407l0,262.575c0,8.271 -6.729,15 -15,15z"/>
 </g>
</svg>