<svg width="511.999" height="511.999" xmlns="http://www.w3.org/2000/svg">

 <g>
  <title>background</title>
  <rect fill="none" id="canvas_background" height="602" width="802" y="-1" x="-1"/>
 </g>
 <g>
  <title>Layer 1</title>
  <g id="svg_1">
   <g id="svg_2">
    <path fill="#ffffff" id="svg_3" d="m498.827,377.633l-63.649,-63.649c-17.548,-17.547 -46.102,-17.547 -63.649,0l-28.931,28.931c-13.294,13.294 -34.926,13.29 -48.215,0.005l-125.4,-125.507c-13.325,-13.325 -13.327,-34.892 0,-48.219c4.66,-4.66 18.041,-18.041 28.931,-28.931c17.471,-17.47 17.715,-45.935 -0.017,-63.665l-63.632,-63.432c-17.548,-17.547 -46.101,-17.547 -63.602,-0.046c-13.096,12.982 -17.32,17.17 -23.192,22.991c-63.28,63.279 -63.28,166.242 -0.003,229.519l198.692,198.796c63.428,63.429 166.088,63.434 229.521,0l23.146,-23.145c17.548,-17.548 17.548,-46.1 0,-63.648zm-406.994,-343.251c5.849,-5.849 15.365,-5.85 21.233,0.016l63.632,63.432c5.863,5.863 5.863,15.352 0,21.216l-10.609,10.608l-84.81,-84.81l10.554,-10.462zm175.547,408.831l-198.693,-198.798c-48.958,-48.958 -51.649,-125.833 -8.276,-178.006l84.564,84.564c-22.22,25.189 -21.294,63.572 2.787,87.653l125.396,125.501c0.001,0.001 0.003,0.003 0.004,0.004c24.055,24.056 62.436,25.042 87.656,2.792l84.566,84.566c-52.007,43.298 -128.709,41.019 -178.004,-8.276zm210.232,-23.148l-10.609,10.609l-84.865,-84.866l10.607,-10.608c5.85,-5.849 15.367,-5.85 21.217,0l63.649,63.649c5.85,5.85 5.85,15.368 0.001,21.216z"/>
   </g>
  </g>
  <g id="svg_4"/>
  <g id="svg_5"/>
  <g id="svg_6"/>
  <g id="svg_7"/>
  <g id="svg_8"/>
  <g id="svg_9"/>
  <g id="svg_10"/>
  <g id="svg_11"/>
  <g id="svg_12"/>
  <g id="svg_13"/>
  <g id="svg_14"/>
  <g id="svg_15"/>
  <g id="svg_16"/>
  <g id="svg_17"/>
  <g id="svg_18"/>
 </g>
</svg>