<svg width="512.00004" height="512" xmlns="http://www.w3.org/2000/svg">

 <g>
  <title>background</title>
  <rect fill="none" id="canvas_background" height="602" width="802" y="-1" x="-1"/>
 </g>
 <g>
  <title>Layer 1</title>
  <path fill="#ffffff" id="svg_1" d="m511,98.96484c-32.20703,1.48438 -31.50391,1.36329 -35.14453,1.66797l19.07422,-54.47265s-59.53907,21.90234 -74.63282,25.82031c-39.64062,-35.62891 -98.5625,-37.20313 -140.6875,-11.3125c-34.49609,21.20703 -53.01171,57.625 -46.83593,100.19141c-67.13672,-9.31641 -123.70313,-41.14063 -168.36328,-94.78907l-14.125,-16.96484l-10.55469,19.38281c-13.33985,24.49219 -17.76953,52.4961 -12.47656,78.85156c2.17187,10.8125 5.86328,21.125 10.97656,30.78125l-12.11719,-4.69531l-1.4375,20.2461c-1.45703,20.5664 5.39063,44.57421 18.32031,64.21484c3.64063,5.53125 8.32813,11.60547 14.26953,17.59766l-6.26171,-0.96094l7.64062,23.19922c10.04297,30.48047 30.90234,54.0625 57.97266,67.17187c-27.03516,11.47266 -48.875,18.79297 -84.77344,30.60156l-32.84375,10.79688l30.33594,16.58594c11.5664,6.32422 52.4375,27.44531 92.82031,33.78125c89.76562,14.07812 190.83203,2.61328 258.87109,-58.66407c57.3086,-51.61328 76.11329,-125.03125 72.20704,-201.43359c-0.58985,-11.56641 2.57812,-22.60547 8.92187,-31.07812c12.70703,-16.96485 48.76563,-66.40625 48.84375,-66.51954zm-72.83203,48.55079c-10.53516,14.0664 -15.8125,32.03125 -14.86719,50.57812c3.94141,77.06641 -17.02734,136.83203 -62.32812,177.62891c-52.91797,47.66015 -138.27344,66.36718 -234.17188,51.32422c-17.36719,-2.72266 -35.31641,-8.82032 -50.17187,-14.91016c30.09765,-10.35547 53.33984,-19.58594 90.875,-37.35156l52.39843,-24.80078l-57.85156,-3.70313c-27.71094,-1.77344 -50.78516,-15.20312 -64.96875,-37.00781c7.53125,-0.4375 14.79297,-1.65625 22.02344,-3.67188l55.17578,-15.36718l-55.63672,-13.625c-27.03516,-6.6211 -42.44531,-22.79688 -50.61328,-35.20313c-5.36328,-8.15234 -8.86719,-16.50391 -10.96875,-24.20312c5.57812,1.49609 12.08203,2.5625 22.57031,3.60156l51.4961,5.09375l-40.80079,-31.82813c-29.39843,-22.92968 -41.17968,-57.3789 -32.54296,-90.49609c91.75,95.16406 199.47656,88.01172 210.32031,90.52734c-2.38672,-23.18359 -2.44922,-23.23828 -3.07422,-25.44531c-13.88672,-49.08984 16.54687,-74.01562 30.27344,-82.45312c28.67187,-17.6211 74.18359,-20.27735 105.70703,8.7539c6.80859,6.26563 16.01562,8.73047 24.63281,6.58985c7.73438,-1.92188 14.08203,-3.95704 20.29688,-6.17188l-12.9375,36.94531l16.51562,0.01172c-3.11719,4.17969 -6.85547,9.1836 -11.35156,15.1836zm0,0"/>
 </g>
</svg>